<?xml version="1.0" encoding="utf-8"?>
<!-- Svg Vector Icons : http://www.onlinewebfonts.com/icon -->
<!DOCTYPE svg PUBLIC "-//W3C//DTD SVG 1.1//EN" "http://www.w3.org/Graphics/SVG/1.1/DTD/svg11.dtd">
<svg version="1.1" xmlns="http://www.w3.org/2000/svg" xmlns:xlink="http://www.w3.org/1999/xlink" x="0px" y="0px" viewBox="0 0 1000 1000" enable-background="new 0 0 1000 1000" xml:space="preserve">
<metadata> Svg Vector Icons : http://www.onlinewebfonts.com/icon </metadata>
<g><path d="M935.3,760.3H64.7c-30.2,0-54.7-24.5-54.7-54.7V92c0-30.2,24.5-54.7,54.7-54.7h870.6c30.2,0,54.7,24.5,54.7,54.7v613.6C990,735.8,965.5,760.3,935.3,760.3z M923.3,115c0-6-4.9-10.9-10.9-10.9H83.3c-6,0-10.9,4.9-10.9,10.9v573.1c0,6,4.9,10.9,10.9,10.9h829.1c6,0,10.9-4.9,10.9-10.9V115z M706.7,298.8h115.9v336.9H706.7V298.8z M521.9,194.8h117v440.8h-117V194.8z M339.2,403.8h115.9v231.9H339.2V403.8z M177.3,506.6h115.9v129.1H177.3V506.6z M345.8,804.1c0-6,4.9-10.9,10.9-10.9h284.4c6,0,10.9,4.9,10.9,10.9v93h187v65.6H156.6V897h189.2V804.1z"/></g>
</svg>